<svg xmlns="http://www.w3.org/2000/svg" xmlns:xlink="http://www.w3.org/1999/xlink" xmlns:inkscape="http://www.inkscape.org/namespaces/inkscape" version="1.1" width="301.551" height="145.338" viewBox="0 0 301.551 145.338">
<defs>
<clipPath id="clip_0">
<path transform="matrix(1,0,0,-1,-142.372,773.215)" d="M0 0H612V792H0Z"/>
</clipPath>
</defs>
<g clip-path="url(#clip_0)">
<text xml:space="preserve" transform="matrix(1 0 -0 1 -142.372 773.215)" font-size="9.9626" font-family="CMMI10" font-style="italic"><tspan y="-751.549" x="253.622">&#x03c0;</tspan></text>
<text xml:space="preserve" transform="matrix(1 0 -0 1 -142.372 773.215)" font-size="6.9738" font-family="CMR7"><tspan y="-755.16506" x="259.444 259.6602 263.20289">&#x00b4;et</tspan><tspan y="-749.07608" x="259.301">1</tspan></text>
<text xml:space="preserve" transform="matrix(1 0 -0 1 -142.372 773.215)" font-size="9.9626" font-family="CMR10"><tspan y="-751.5491" x="266.81199">(</tspan></text>
<text xml:space="preserve" transform="matrix(1 0 -0 1 -142.372 773.215)" font-size="9.9626" font-family="CMMI10" font-style="italic"><tspan y="-751.5491" x="270.68699">X</tspan></text>
<path transform="matrix(1,0,0,-1,136.56902,18.742005)" stroke-width=".339" stroke-linecap="butt" stroke-miterlimit="10" stroke-linejoin="miter" fill="none" stroke="#000000" d="M0 0H7.681"/>
<text xml:space="preserve" transform="matrix(1 0 -0 1 -142.372 773.215)" font-size="6.9738" font-family="CMMI7" font-style="italic"><tspan y="-748.522" x="278.941">K</tspan></text>
<text xml:space="preserve" transform="matrix(1 0 -0 1 -142.372 773.215)" font-size="9.9626" font-family="CMMI10" font-style="italic"><tspan y="-751.54898" x="286.622">,</tspan></text>
<text xml:space="preserve" transform="matrix(1 0 -0 1 -142.372 773.215)" font-size="9.9626" font-family="CMR10"><tspan y="-751.54898" x="291.682">&#x00af;</tspan></text>
<text xml:space="preserve" transform="matrix(1 0 -0 1 -142.372 773.215)" font-size="9.9626" font-family="CMMI10" font-style="italic"><tspan y="-751.54898" x="291.049">x</tspan></text>
<text xml:space="preserve" transform="matrix(1 0 -0 1 -142.372 773.215)" font-size="9.9626" font-family="CMR10"><tspan y="-751.54898" x="296.743">)</tspan></text>
<text xml:space="preserve" transform="matrix(1 0 -0 1 -142.37201 773.2151)" font-size="9.9626" font-family="CMMI10" font-style="italic"><tspan y="-702.541" x="175.613">&#x03c0;</tspan></text>
<text xml:space="preserve" transform="matrix(1 0 -0 1 -142.37201 773.2151)" font-size="6.9738" font-family="CMR7"><tspan y="-706.15707" x="181.43502 181.6512 185.1939">&#x00b4;et</tspan><tspan y="-700.06906" x="181.292">1</tspan></text>
<text xml:space="preserve" transform="matrix(1 0 -0 1 -142.37201 773.2151)" font-size="9.9626" font-family="CMR10"><tspan y="-702.541" x="188.80301">(</tspan></text>
<text xml:space="preserve" transform="matrix(1 0 -0 1 -142.37201 773.2151)" font-size="9.9626" font-family="CMMI10" font-style="italic"><tspan y="-702.541" x="192.677 201.16515">X,</tspan></text>
<text xml:space="preserve" transform="matrix(1 0 -0 1 -142.37201 773.2151)" font-size="9.9626" font-family="CMR10"><tspan y="-702.541" x="206.22">&#x00af;</tspan></text>
<text xml:space="preserve" transform="matrix(1 0 -0 1 -142.37201 773.2151)" font-size="9.9626" font-family="CMMI10" font-style="italic"><tspan y="-702.541" x="205.587">x</tspan></text>
<text xml:space="preserve" transform="matrix(1 0 -0 1 -142.37201 773.2151)" font-size="9.9626" font-family="CMR10"><tspan y="-702.541" x="211.281">)</tspan></text>
<text xml:space="preserve" transform="matrix(1 0 -0 1 -142.37203 773.2151)" font-size="9.9626" font-family="CMR10"><tspan y="-702.541" x="364.414 372.23466 377.21595 379.98554">Gal(</tspan></text>
<path transform="matrix(1,0,0,-1,241.48299,62.47107)" stroke-width=".398" stroke-linecap="butt" stroke-miterlimit="10" stroke-linejoin="miter" fill="none" stroke="#000000" d="M0 0H9.174"/>
<text xml:space="preserve" transform="matrix(1 0 -0 1 -142.37203 773.2151)" font-size="9.9626" font-family="CMMI10" font-style="italic"><tspan y="-702.541" x="383.855 393.03059 398.01188">K/K</tspan></text>
<text xml:space="preserve" transform="matrix(1 0 -0 1 -142.37203 773.2151)" font-size="9.9626" font-family="CMR10"><tspan y="-702.541" x="407.18403">)</tspan></text>
<text xml:space="preserve" transform="matrix(1 0 -0 1 -142.37203 773.215)" font-size="9.9626" font-family="CMMI10" font-style="italic"><tspan y="-654.412" x="182.405">X</tspan></text>
<text xml:space="preserve" transform="matrix(1 0 -0 1 -142.37203 773.215)" font-size="9.9626" font-family="CMR10"><tspan y="-654.412" x="191.441">(</tspan></text>
<text xml:space="preserve" transform="matrix(1 0 -0 1 -142.37203 773.215)" font-size="9.9626" font-family="CMMI10" font-style="italic"><tspan y="-654.412" x="195.31499">K</tspan></text>
<text xml:space="preserve" transform="matrix(1 0 -0 1 -142.37203 773.215)" font-size="9.9626" font-family="CMR10"><tspan y="-654.412" x="204.48899">)</tspan></text>
<text xml:space="preserve" transform="matrix(1 0 -0 1 -142.37201 773.215)" font-size="9.9626" font-family="CMR10"><tspan y="-654.412" x="339.085 346.55696 351.53825">Hom</tspan></text>
<text xml:space="preserve" transform="matrix(1 0 -0 1 -142.37201 773.215)" font-size="6.9738" font-family="CMR7"><tspan y="-652.91799" x="359.84 363.81507 368.21556">out</tspan></text>
<text xml:space="preserve" transform="matrix(1 0 -0 1 -142.37201 773.215)" font-size="9.9626" font-family="CMR10"><tspan y="-654.412" x="371.823">(</tspan></text>
<text xml:space="preserve" transform="matrix(1 0 -0 1 -142.37201 773.215)" font-size="9.9626" font-family="CMMI10" font-style="italic"><tspan y="-654.412" x="375.697">G</tspan></text>
<text xml:space="preserve" transform="matrix(1 0 -0 1 -142.37201 773.215)" font-size="6.9738" font-family="CMMI7" font-style="italic"><tspan y="-652.91799" x="383.53">K</tspan></text>
<text xml:space="preserve" transform="matrix(1 0 -0 1 -142.37201 773.215)" font-size="9.9626" font-family="CMMI10" font-style="italic"><tspan y="-654.412" x="391.211 395.64436">,&#x03c0;</tspan></text>
<text xml:space="preserve" transform="matrix(1 0 -0 1 -142.37201 773.215)" font-size="6.9738" font-family="CMR7"><tspan y="-658.028" x="401.461 401.6772 405.21989">&#x00b4;et</tspan><tspan y="-651.94" x="401.318">1</tspan></text>
<text xml:space="preserve" transform="matrix(1 0 -0 1 -142.37201 773.215)" font-size="9.9626" font-family="CMR10"><tspan y="-654.412" x="408.82899">(</tspan></text>
<text xml:space="preserve" transform="matrix(1 0 -0 1 -142.37201 773.215)" font-size="9.9626" font-family="CMMI10" font-style="italic"><tspan y="-654.412" x="412.70399">X</tspan></text>
<path transform="matrix(1,0,0,-1,278.586,115.87903)" stroke-width=".339" stroke-linecap="butt" stroke-miterlimit="10" stroke-linejoin="miter" fill="none" stroke="#000000" d="M0 0H7.681"/>
<text xml:space="preserve" transform="matrix(1 0 -0 1 -142.37201 773.215)" font-size="6.9738" font-family="CMMI7" font-style="italic"><tspan y="-651.385" x="420.958">K</tspan></text>
<text xml:space="preserve" transform="matrix(1 0 -0 1 -142.37201 773.215)" font-size="9.9626" font-family="CMR10"><tspan y="-654.412" x="428.639 432.51448">))</tspan></text>
<path transform="matrix(1,0,0,-1,163.628,67.51904)" stroke-width=".39848" stroke-linecap="butt" stroke-miterlimit="10" stroke-linejoin="miter" fill="none" stroke="#000000" d="M-44.49019 38.9807-93.91248 9.35382"/>
<path transform="matrix(-.85767,.51414,.51414,.85767,69.54466,58.267644)" stroke-width=".39848" stroke-linecap="round" stroke-linejoin="round" fill="none" stroke="#000000" d="M-2.07213 2.39091C-1.69356 .95633-.84995 .27893 0 0-.84995-.27893-1.69356-.95633-2.07213-2.39091"/>
<text xml:space="preserve" transform="matrix(1 0 -0 1 -142.372 773.215)" font-size="6.9738" font-family="CMMI7" font-style="italic"><tspan y="-732.105" x="231.336">&#x03b9;</tspan></text>
<path transform="matrix(1,0,0,-1,163.628,67.51904)" stroke-width=".39848" stroke-linecap="butt" stroke-miterlimit="10" stroke-linejoin="miter" fill="none" stroke="#000000" d="M-7.75067 38.9807 58.45642 9.65222"/>
<path transform="matrix(.91428,.405,.405,-.91428,222.26657,57.947526)" stroke-width=".39848" stroke-linecap="round" stroke-linejoin="round" fill="none" stroke="#000000" d="M-2.07213 2.39091C-1.69356 .95633-.84995 .27893 0 0-.84995-.27893-1.69356-.95633-2.07213-2.39091"/>
<text xml:space="preserve" transform="matrix(1 0 -0 1 -142.372 773.215)" font-size="6.9738" font-family="CMMI7" font-style="italic"><tspan y="-732.276" x="333.879">&#x03c0;</tspan></text>
<path transform="matrix(1,0,0,-1,163.628,67.51904)" stroke-width=".39848" stroke-linecap="butt" stroke-miterlimit="10" stroke-linejoin="miter" fill="none" stroke="#000000" d="M-86.35698-.66411H53.52713"/>
<path transform="matrix(1,0,0,-1,217.35437,68.18315)" stroke-width=".39848" stroke-linecap="round" stroke-linejoin="round" fill="none" stroke="#000000" d="M-2.07213 2.39091C-1.69356 .95633-.84995 .27893 0 0-.84995-.27893-1.69356-.95633-2.07213-2.39091"/>
<text xml:space="preserve" transform="matrix(1 0 -0 1 -142.37201 773.215)" font-size="6.9738" font-family="CMMI7" font-style="italic"><tspan y="-708.732" x="287.389">&#x03d5;</tspan></text>
<path transform="matrix(1,0,0,-1,163.628,67.51904)" stroke-width=".39848" stroke-linecap="butt" stroke-miterlimit="10" stroke-linejoin="miter" fill="none" stroke="#000000" d="M-110.61734-9.49084V-39.56856"/>
<path transform="matrix(0,1,1,0,53.010667,107.286838)" stroke-width=".39848" stroke-linecap="round" stroke-linejoin="round" fill="none" stroke="#000000" d="M-2.07213 2.39091C-1.69356 .95633-.84995 .27893 0 0-.84995-.27893-1.69356-.95633-2.07213-2.39091"/>
<text xml:space="preserve" transform="matrix(1 0 -0 1 -142.372 773.215)" font-size="6.9738" font-family="CMMI7" font-style="italic"><tspan y="-679.964" x="184.838">s</tspan></text>
<text xml:space="preserve" transform="matrix(1 0 -0 1 -142.372 773.215)" font-size="4.9813" font-family="CMMI5" font-style="italic"><tspan y="-678.968" x="188.59799">x</tspan></text>
<path transform="matrix(1,0,0,-1,163.628,67.51904)" stroke-width=".39848" stroke-linecap="butt" stroke-miterlimit="10" stroke-linejoin="miter" fill="none" stroke="#000000" d="M81.73695-9.49084V-38.58221"/>
<path transform="matrix(0,1,1,0,245.36496,106.30049)" stroke-width=".39848" stroke-linecap="round" stroke-linejoin="round" fill="none" stroke="#000000" d="M-2.07213 2.39091C-1.69356 .95633-.84995 .27893 0 0-.84995-.27893-1.69356-.95633-2.07213-2.39091"/>
<text xml:space="preserve" transform="matrix(1 0 -0 1 -142.37198 773.2151)" font-size="6.9738" font-family="CMR7"><tspan y="-679.793" x="390.08 393.62269 397.59776 401.99824">conj</tspan></text>
<path transform="matrix(1,0,0,-1,163.628,67.51904)" stroke-width=".39848" stroke-linecap="butt" stroke-miterlimit="10" stroke-linejoin="miter" fill="none" stroke="#000000" d="M-93.1493-48.79376H28.19774"/>
<path transform="matrix(1,0,0,-1,192.02498,116.312808)" stroke-width=".39848" stroke-linecap="round" stroke-linejoin="round" fill="none" stroke="#000000" d="M-2.07213 2.39091C-1.69356 .95633-.84995 .27893 0 0-.84995-.27893-1.69356-.95633-2.07213-2.39091"/>
<text xml:space="preserve" transform="matrix(1 0 -0 1 -142.372 773.2151)" font-size="6.9738" font-family="CMMI7" font-style="italic"><tspan y="-651.556" x="271.392">&#x03ba;</tspan></text>
<path transform="matrix(1,0,0,-1,163.628,67.51904)" stroke-width=".39848" stroke-linecap="butt" stroke-dasharray="2.78941,1.59395" stroke-miterlimit="10" stroke-linejoin="miter" fill="none" stroke="#ff0000" d="M-109.0496-39.96703C-106.08177-2.58762-88.56497 22.86113-55.06932 38.80942"/>
<path transform="matrix(.90283,-.42987,-.42987,-.90283,108.738559,28.623993)" stroke-width=".39848" stroke-linecap="round" stroke-linejoin="round" fill="none" stroke="#ff0000" d="M-2.07213 2.39091C-1.69356 .95633-.84995 .27893 0 0-.84995-.27893-1.69356-.95633-2.07213-2.39091"/>
<text fill="#ff0000" xml:space="preserve" transform="matrix(1 0 -0 1 -142.37198 773.215)" font-size="6.9738" font-family="CMR7"><tspan y="-706.141" x="214.883 218.04213 221.58483 225.12752 228.23784 230.49037 234.46544">section</tspan></text>
</g>
</svg>
